<?xml version="1.0" encoding="UTF-8" standalone="no"?>
<!-- Creator: CorelDRAW X7 -->

<svg
   xmlns:dc="http://purl.org/dc/elements/1.1/"
   xmlns:cc="http://creativecommons.org/ns#"
   xmlns:rdf="http://www.w3.org/1999/02/22-rdf-syntax-ns#"
   xmlns:svg="http://www.w3.org/2000/svg"
   xmlns="http://www.w3.org/2000/svg"
   xmlns:sodipodi="http://sodipodi.sourceforge.net/DTD/sodipodi-0.dtd"
   xmlns:inkscape="http://www.inkscape.org/namespaces/inkscape"
   xml:space="preserve"
   width="74mm"
   height="52mm"
   version="1.0"
   style="clip-rule:evenodd;fill-rule:evenodd;image-rendering:optimizeQuality;shape-rendering:geometricPrecision;text-rendering:geometricPrecision"
   viewBox="0 0 7399.9999 5199.9999"
   id="svg921"
   sodipodi:docname="Nerdberg-Owner-Stirckers.svg"
   inkscape:label="Layer1"
   inkscape:version="0.92.4 (5da689c313, 2019-01-14)"
   inkscape:export-filename="/home/flip/Pictures/Vectors/Nerdberg-Owner-Stickers/private.png"
   inkscape:export-xdpi="199.78078"
   inkscape:export-ydpi="199.78078"><metadata
   id="metadata925"><rdf:RDF><cc:Work
       rdf:about=""><dc:format>image/svg+xml</dc:format><dc:type
         rdf:resource="http://purl.org/dc/dcmitype/StillImage" /><dc:title></dc:title></cc:Work></rdf:RDF></metadata><sodipodi:namedview
   pagecolor="#ffffff"
   bordercolor="#666666"
   borderopacity="1"
   objecttolerance="10"
   gridtolerance="10"
   guidetolerance="10"
   inkscape:pageopacity="0"
   inkscape:pageshadow="2"
   inkscape:window-width="1366"
   inkscape:window-height="712"
   id="namedview923"
   showgrid="false"
   showguides="false"
   inkscape:guide-bbox="true"
   inkscape:snap-bbox="true"
   inkscape:bbox-paths="true"
   inkscape:bbox-nodes="true"
   inkscape:snap-bbox-edge-midpoints="true"
   inkscape:snap-bbox-midpoints="true"
   inkscape:snap-nodes="true"
   inkscape:object-paths="true"
   inkscape:snap-intersection-paths="true"
   inkscape:snap-smooth-nodes="true"
   inkscape:snap-midpoints="true"
   inkscape:snap-object-midpoints="true"
   inkscape:snap-center="false"
   inkscape:snap-text-baseline="false"
   inkscape:snap-global="true"
   inkscape:lockguides="false"
   inkscape:zoom="2"
   inkscape:cx="274.90587"
   inkscape:cy="91.072915"
   inkscape:window-x="0"
   inkscape:window-y="28"
   inkscape:window-maximized="1"
   inkscape:current-layer="svg921"><sodipodi:guide
     position="7402.0368,2600.0075"
     orientation="0,1"
     id="guide5264"
     inkscape:locked="false"
     inkscape:label="ABSOLUTE CENTERLINE"
     inkscape:color="rgb(0,255,0)" /><sodipodi:guide
     position="1300,0"
     orientation="1,0"
     id="guide5272"
     inkscape:locked="false"
     inkscape:label=""
     inkscape:color="rgb(0,0,255)" /><sodipodi:guide
     position="7400.0001,2600"
     orientation="1,0"
     id="guide5288"
     inkscape:locked="false"
     inkscape:label=""
     inkscape:color="rgb(0,0,255)" /><sodipodi:guide
     position="2000,0"
     orientation="1,0"
     id="guide5292"
     inkscape:locked="false"
     inkscape:label=""
     inkscape:color="rgb(0,0,255)" /><sodipodi:guide
     position="7400.0001,3700.0127"
     orientation="0,1"
     id="guide5300"
     inkscape:locked="true"
     inkscape:label="MAINTEXT CENTER"
     inkscape:color="rgb(255,0,255)" /><sodipodi:guide
     position="0,400"
     orientation="0,1"
     id="guide5302"
     inkscape:locked="false"
     inkscape:label=""
     inkscape:color="rgb(0,0,255)" /><sodipodi:guide
     position="7100.0001,0"
     orientation="1,0"
     id="guide5304"
     inkscape:locked="false"
     inkscape:label=""
     inkscape:color="rgb(0,0,255)" /><sodipodi:guide
     position="2300,5200"
     orientation="-0.70710678,0.70710678"
     id="guide5312"
     inkscape:locked="false"
     inkscape:label=""
     inkscape:color="rgb(0,0,255)" /><sodipodi:guide
     position="0,0"
     orientation="1,0"
     id="guide5314"
     inkscape:locked="false"
     inkscape:label=""
     inkscape:color="rgb(0,0,255)" /><sodipodi:guide
     position="0,5200"
     orientation="0,1"
     id="guide5316"
     inkscape:locked="false"
     inkscape:label=""
     inkscape:color="rgb(0,0,255)" /><sodipodi:guide
     position="7400.0001,2699.9936"
     orientation="0,1"
     id="guide5322"
     inkscape:locked="true"
     inkscape:label="SUBTETXT CENTER"
     inkscape:color="rgb(255,0,255)" /><sodipodi:guide
     position="3700,0"
     orientation="1,0"
     id="guide5324"
     inkscape:locked="false"
     inkscape:label="ABSOLUTE CENTERLINE"
     inkscape:color="rgb(0,255,0)" /><sodipodi:guide
     position="4900,0"
     orientation="1,0"
     id="guide5326"
     inkscape:locked="true"
     inkscape:label="MAINTEXT CENTER"
     inkscape:color="rgb(255,0,255)" /><sodipodi:guide
     position="4799.9915,0"
     orientation="1,0"
     id="guide5328"
     inkscape:locked="true"
     inkscape:label="SUBTEXT CENTER"
     inkscape:color="rgb(255,0,255)" /></sodipodi:namedview>
 <defs
   id="defs915">
  <style
   type="text/css"
   id="style913">
   <![CDATA[
    .str0 {stroke:#2B2A29;stroke-width:132.97}
    .fil0 {fill:none}
    .fil1 {fill:black}
   ]]>
  </style>
 
  
  
  
 </defs>
 <path
   inkscape:label="Nerdberg-Logo"
   style="fill:#000000;stroke-width:0.34079704"
   inkscape:export-ydpi="350"
   inkscape:export-xdpi="350"
   sodipodi:nodetypes="ccssccccscscsssscscccccscscscssssccccsssccsccscscccsccsccscsccccccccscscccsccscscsssscccccsscccscccccsccccscssccccsccssscccccccccccccccccccccccccccccccccccscssccscssccss"
   inkscape:connector-curvature="0"
   d="m 1061.0859,4821.6635 c -96.83996,-30.4348 -167.67306,-84.5628 -186.16638,-141.7168 -33.11602,-102.1813 -43.85053,-223.4531 -38.513,-426.2021 4.45014,-169.0067 15.28155,-299.171 52.58051,-638.9408 62.6745,-569.9013 64.734,-731.5192 10.37682,-809.7866 -32.27707,-46.8775 -100.12525,-84.4919 -156.29598,-87.1049 -59.25058,-2.4129 -145.52185,25.983 -174.97303,57.7087 -22.27823,24.2059 -40.97848,59.5001 -59.43338,111.5247 -45.58653,129.2253 -43.81313,120.4402 -171.32915,969.4659 -99.91663,666.428 -133.22459,876.4 -134.46733,851.7787 21.21985,-368.1547 140.53442,-1290.2334 197.60225,-1636.9331 17.11734,-103.9408 51.84957,-212.5202 91.64852,-283.3353 59.87658,-106.3896 146.58328,-151.4832 267.46721,-131.8708 134.43786,21.6034 216.63117,88.2008 236.52556,210.5834 15.63548,96.5909 9.07128,259.7061 -21.60075,523.0212 -35.76322,306.7546 -40.64044,382.2655 -52.31868,508.6343 -14.01436,154.5798 -34.0223,445.3432 -27.84786,532.6294 9.11181,134.1613 8.24839,204.0607 87.6864,285.8824 46.23467,47.5268 93.93457,56.2257 192.46857,64.9028 83.2471,7.2852 128.9912,-7.9857 193.8632,-38.4031 79.4863,-36.5599 129.4268,-98.0347 157.5006,-144.1509 l 4.3068,-19.2457 -31.0184,-7.9259 c -40.4717,-10.0695 -45.2533,-9.9516 -45.7284,0.2614 -0.6493,13.9579 -34.0908,72.7854 -55.348,97.0469 -73.8893,84.9222 -226.8929,103.052 -338.5846,39.8596 -69.14675,-39.0383 -103.47426,-93.1759 -114.09026,-180.3273 -17.41626,-138.9804 -2.46656,-489.6866 34.13545,-814.4786 64.95451,-574.9108 74.93101,-730.7025 53.31861,-852.8247 -16.752,-94.5976 -57.87192,-149.3895 -151.64002,-201.8574 -67.15116,-37.9224 -99.00952,-42.4717 -156.39127,-41.0516 -160.18371,3.8077 -221.24775,77.0503 -269.05859,158.7489 -53.32943,90.3194 -48.69778,86.0951 -162.00223,812.9672 -96.16342,615.0839 -135.18752,815.9215 -135.18752,815.9215 -1.7812,1.621 13.04796,-119.1414 11.26683,-146.8601 80.70164,-612.7319 159.36837,-1189.0549 192.20096,-1359.4703 14.79743,-76.0776 36.46636,-123.8543 82.87616,-182.7654 155.93358,-198.4704 451.42596,-184.7246 588.58538,27.7214 54.4286,84.07 59.7961,130.0361 43.3669,373.2054 -10.8946,160.8605 -27.7588,332.7095 -54.0369,552.9032 -44.74954,375.2489 -56.477,796.0405 -26.26671,924.0196 8.56621,35.8798 33.34581,60.573 95.85791,95.5506 44.5725,24.5887 45.2371,24.963 105.4932,27.766 57.1917,2.6605 62.3457,1.8751 97.8615,-13.5322 74.5307,-32.694 133.235,-99.219 135.4127,-153.3653 0.6176,-13.2766 9.8253,-71.87 20.0386,-130.0763 24.7337,-135.6542 60.2738,-364.2867 86.3142,-550.0353 17.9329,-128.8078 37.8919,-227.8404 166.8713,-822.2971 80.3988,-371.5353 147.719,-681.9374 149.8012,-690.0304 2.9215,-11.4636 1.362,-14.6075 -9.3893,-18.1759 -7.4103,-2.0506 -14.3216,-7.4886 -15.8339,-11.6524 -4.7815,-14.5529 44.4952,-267.1129 148.6066,-759.6892 40.7342,-193.5952 50.8205,-249.0735 47.4164,-263.9027 -2.2483,-10.3406 -4.3463,-31.2477 -3.9737,-46.587 0.095,-31.3804 10.1967,-43.1918 36.4099,-41.9724 25.532,1.1877 32.6497,-12.4683 48.9588,-99.046 8.5588,-44.6355 18.2253,-83.7596 21.1232,-87.3838 3.6101,-4.2619 19.7215,-5.905 45.5943,-4.7014 37.1064,1.7261 40.2178,0.8498 43.4639,-10.2584 1.6783,-6.7463 17.5364,-76.28753 35.1683,-154.61882 23.6643,-105.34316 30.6555,-145.6158 26.9814,-154.65429 -3.6887,-8.7028 2.336,-42.88077 22.4539,-130.64874 23.0385,-99.23063 29.4836,-120.42404 40.5275,-130.48471 12.8257,-11.68764 21.6928,-26.28438 40.6305,-66.68702 8.7482,-19.37742 10.4819,-19.9785 27.0049,-15.80521 9.7773,2.50604 19.1508,6.35377 21.1143,8.15095 1.6068,2.12396 3.2696,25.059 3.4274,50.99635 0.1423,26.273 2.7471,50.96071 5.9452,55.54427 4.8377,6.0253 0.072,35.14128 -20.9804,128.3247 -24.5987,110.75759 -29.7056,125.18987 -45.6501,130.58979 -3.1113,0.87737 -72.7037,294.11633 -73.4321,309.77333 -0.1424,3.0627 13.158,10.5078 29.2612,16.3724 16.1032,5.8687 30.1159,12.6601 31.3827,14.7653 1.2663,2.1091 -5.1778,37.9694 -14.2747,79.5116 -22.0021,98.9354 -21.472,109.5385 4.7255,125.7664 36.8059,22.867 36.6709,33.0938 -1.1487,90.6996 l -22.4446,35.117 -56.6558,264.497 c -69.3308,324.2936 -157.4888,701.2753 -167.3612,715.4869 -1.8287,2.6439 -10.4346,4.2898 -18.9452,3.8939 -12.2552,-0.5701 -16.8236,2.2887 -19.2938,11.3867 -2.0187,6.7265 -67.8822,315.1481 -146.5316,685.7478 -132.3523,622.9547 -146.4843,684.7288 -188.5556,826.4028 -65.9261,221.7631 -152.9358,581.3984 -155.8654,644.3763 -0.3484,7.4879 -3.8087,15.8612 -7.6637,18.0614 -3.8557,2.2153 -12.0578,17.1843 -18.6212,33.597 -40.7331,105.5713 -134.336,188.8977 -245.2606,219.217 -24.8753,6.6914 -53.9697,8.7446 -112.6029,7.7279 -70.8884,-1.5917 -84.4581,-3.2471 -128.8403,-17.2536 z m 509.5534,-348.8508 c 28.3831,-148.1061 103.0022,-439.4043 161.7635,-631.8187 l 18.5102,-60.5472 -25.1918,-1.1719 -25.1918,-1.1719 -29.61,79.1376 c -49.5214,133.1386 -94.3088,296.5229 -150.0855,549.4613 l -28.4857,128.3149 12.4929,10.1345 c 10.8379,9.0334 40.4631,17.5762 47.1373,13.4509 1.4089,-0.9545 10.0229,-39.4488 18.6609,-85.7895 z m 189.41,-727.4213 c 10.9496,-37.3615 287.5926,-1349.2416 284.9954,-1352.0883 -1.6225,-1.7813 -10.0542,-3.8784 -18.5333,-4.9536 -15.5962,-2.093 -15.612,-1.7533 -36.4817,65.5085 -32.5158,104.9344 -75.7433,271.4576 -124.6795,480.025 -47.2262,201.1357 -175.9991,791.1612 -176.8858,810.2226 -0.4277,9.1941 3.5625,11.4259 25.2708,14.1416 39.0064,4.8838 41.0807,4.2976 46.3141,-12.8558 z m 330.5579,-1370.7793 c 0.047,-1.0199 9.2787,-38.12 20.5448,-82.2882 46.482,-185.1381 107.7135,-460.0017 188.3578,-844.1533 l 9.5959,-44.9276 -19.3649,-9.0887 c -26.0306,-12.47 -116.854,-40.2334 -133.5349,-41.0094 -9.8725,-0.4592 -13.031,1.437 -10.9176,7.3366 4.7821,14.551 -178.3183,716.3387 -237.4672,909.7621 -8.4633,27.9189 -16.5072,54.1575 -17.7185,58.1975 -2.7948,8.7376 6.9666,11.5823 111.0589,32.7992 65.2278,13.2673 89.2874,16.7751 89.4457,13.3718 z m 252.5657,-1021.6424 c 23.5295,-36.434 19.8559,-45.4754 -24.7402,-62.2178 -20.4649,-7.435 -45.3246,-15.7542 -55.1177,-17.9146 -16.5226,-4.1853 -17.5755,-3.5515 -18.2882,11.7689 -1.1244,24.1719 -12.8813,49.551 -25.7941,55.7767 -10.1258,4.9868 -6.1515,7.5603 33.1567,20.645 24.5183,8.3063 48.6493,17.6157 53.2885,20.5624 10.6086,6.6322 18.043,0.8394 37.495,-28.6206 z m -34.8742,-93.7338 c -5.9686,-18.3641 -194.3921,-60.22 -204.2962,-45.3292 -2.5411,3.2915 3.8318,5.6362 16.7682,6.2379 39.4738,2.1757 139.3222,26.6128 189.2226,46.6733 0.6651,0.3713 -0.198,-3.0816 -1.6946,-7.582 z m -58.6635,-59.0257 c 43.1476,-32.7914 59.7415,-52.1463 70.6831,-82.0021 6.2544,-17.1088 9.3974,-33.3373 7.1255,-35.8346 -15.6125,-16.4162 -177.5535,-48.1716 -185.5973,-36.6049 -4.7898,7.6227 -31.1141,140.8153 -27.8366,143.6987 1.9475,2.1388 85.2335,15.9099 108.6599,18.3611 8.1542,0.7197 20.2435,-2.47 26.9654,-7.6182 z m 68.816,-320.56554 c 18.7955,-81.34548 32.223,-149.97867 29.9509,-152.47094 -2.2717,-2.49526 -13.7358,-5.41513 -25.6192,-6.65366 0,0 -2.9927,5.66305 -3.0325,13.85305 -0.19,4.08358 -5.3121,33.52237 -11.2423,65.66052 -23.9812,126.82163 -36.7127,239.15537 -26.0244,229.41447 1.0686,-0.9694 17.513,-68.4411 35.9675,-149.80344 z m 84.0801,-281.98356 c 12.0181,-53.0018 20.6717,-99.68311 19.4844,-103.49139 -4.228,-11.79321 -78.4728,-29.23507 -79.32,-18.35969 -0.095,2.04579 -10.8071,48.96571 -23.9416,103.96679 -13.1345,54.99807 -23.9416,103.96479 -24.1949,109.4109 -0.3326,7.14926 4.3226,9.7544 19.9665,10.8245 11.2181,0.86221 29.1025,5.10785 39.1414,9.3269 23.4341,9.61833 20.7658,15.63484 48.8642,-111.67801 z m 13.5709,-174.38977 c 2.4702,-53.10158 -6.3493,-54.19658 -33.9005,-4.64531 l -20.4813,36.91815 16.5859,2.81676 c 38.5715,6.91081 35.7213,9.50817 37.7959,-35.0896 z"
   class="fil1"
   id="path826-3" />
<path
   style="display:inline;fill:none;stroke:#000000;stroke-width:68.79166412;stroke-linecap:butt;stroke-linejoin:miter;stroke-miterlimit:4;stroke-dasharray:68.79166731, 137.58333462;stroke-dashoffset:0;stroke-opacity:1"
   d="M 2000,4800 H 7100.0001"
   id="path5306"
   inkscape:connector-curvature="0"
   sodipodi:nodetypes="cc"
   inkscape:label="LabelLine" /><g
   style="display:none"
   inkscape:label="giveaway - take it home if you like"
   id="g5404"><text
     xml:space="preserve"
     style="font-style:normal;font-weight:normal;font-size:1058.33337402px;line-height:1.25;font-family:sans-serif;letter-spacing:0px;word-spacing:0px;fill:#000000;fill-opacity:1;stroke:none;stroke-width:26.45833397"
     x="3188.6514"
     y="2577.8657"
     id="text5402"
     inkscape:label="take it home if you like"><tspan
       sodipodi:role="line"
       x="3188.6514"
       y="2577.8657"
       style="font-size:282.222229px;stroke-width:26.45833397"
       id="tspan5406">take it home if you like</tspan></text>
<text
     xml:space="preserve"
     style="font-style:normal;font-weight:normal;font-size:1058.33337402px;line-height:1.25;font-family:sans-serif;letter-spacing:0px;word-spacing:0px;display:inline;fill:#000000;fill-opacity:1;stroke:none;stroke-width:26.45833397"
     x="2538.5938"
     y="1772.4944"
     id="text5396"
     inkscape:label="giveaway"><tspan
       sodipodi:role="line"
       id="tspan5394"
       x="2538.5938"
       y="1772.4944"
       style="font-style:normal;font-variant:normal;font-weight:normal;font-stretch:normal;font-size:987.777771px;font-family:sans-serif;-inkscape-font-specification:sans-serif;stroke-width:26.45833397">giveaway</tspan></text>
<path
     style="fill:#808080;fill-opacity:1;stroke:none;stroke-width:26.45833397px;stroke-linecap:butt;stroke-linejoin:miter;stroke-opacity:1"
     d="M 0,-8.7552735e-6 H 2300 L 0,2300 Z"
     id="path5398"
     inkscape:connector-curvature="0"
     sodipodi:nodetypes="cccc"
     inkscape:label="Corner Grey" /></g><g
   id="g5357"
   inkscape:label="public - use with care"
   style="display:none"><text
     inkscape:label="handle with care"
     id="text5339"
     y="2605.2197"
     x="3717.8499"
     style="font-style:normal;font-weight:normal;font-size:1058.33337402px;line-height:1.25;font-family:sans-serif;letter-spacing:0px;word-spacing:0px;fill:#000000;fill-opacity:1;stroke:none;stroke-width:26.45833397"
     xml:space="preserve"><tspan
       style="font-size:282.222229px;stroke-width:26.45833397"
       y="2605.2197"
       x="3717.8499"
       sodipodi:role="line"
       id="tspan5390">handle with care</tspan></text>
<text
     inkscape:label="public"
     id="text5348"
     y="1811.424"
     x="3185.4448"
     style="font-style:normal;font-weight:normal;font-size:1058.33337402px;line-height:1.25;font-family:sans-serif;letter-spacing:0px;word-spacing:0px;display:inline;fill:#000000;fill-opacity:1;stroke:none;stroke-width:26.45833397"
     xml:space="preserve"><tspan
       style="font-style:normal;font-variant:normal;font-weight:normal;font-stretch:normal;font-size:1128.88891602px;font-family:sans-serif;-inkscape-font-specification:sans-serif;stroke-width:26.45833397"
       y="1811.424"
       x="3185.4448"
       id="tspan5346"
       sodipodi:role="line">public</tspan></text>
<path
     inkscape:label="Corner Green"
     sodipodi:nodetypes="cccc"
     inkscape:connector-curvature="0"
     id="path5343"
     d="M 0,-8.7552735e-6 H 2300 L 0,2300 Z"
     style="fill:#00ff00;fill-opacity:1;stroke:none;stroke-width:26.45833397px;stroke-linecap:butt;stroke-linejoin:miter;stroke-opacity:1" /></g><g
   style="display:none"
   inkscape:label="beware - read instructions first"
   id="g5369"><text
     xml:space="preserve"
     style="font-style:normal;font-weight:normal;font-size:1058.33337402px;line-height:1.25;font-family:sans-serif;letter-spacing:0px;word-spacing:0px;fill:#000000;fill-opacity:1;stroke:none;stroke-width:26.45833397"
     x="3279.4641"
     y="2605.2197"
     id="text5367"
     inkscape:label="read instructions first"><tspan
       sodipodi:role="line"
       id="tspan5365"
       x="3279.4641"
       y="2605.2197"
       style="font-size:282.222229px;stroke-width:26.45833397">read instructions first</tspan></text>
<text
     xml:space="preserve"
     style="font-style:normal;font-weight:normal;font-size:1058.33337402px;line-height:1.25;font-family:sans-serif;letter-spacing:0px;word-spacing:0px;display:inline;fill:#000000;fill-opacity:1;stroke:none;stroke-width:26.45833397"
     x="2797.3894"
     y="1920.8402"
     id="text5361"
     inkscape:label="beware"><tspan
       sodipodi:role="line"
       id="tspan5359"
       x="2797.3894"
       y="1920.8402"
       style="font-style:normal;font-variant:normal;font-weight:normal;font-stretch:normal;font-size:1128.88891602px;font-family:sans-serif;-inkscape-font-specification:sans-serif;stroke-width:26.45833397">beware</tspan></text>
<path
     style="fill:#ffff00;fill-opacity:1;stroke:none;stroke-width:26.45833397px;stroke-linecap:butt;stroke-linejoin:miter;stroke-opacity:1"
     d="M 0,-8.7552735e-6 H 2300 L 0,2300 Z"
     id="path5363"
     inkscape:connector-curvature="0"
     sodipodi:nodetypes="cccc"
     inkscape:label="Corner Yellow" /></g><g
   id="g5335"
   inkscape:label="private - use only with explicit permission"
   style="display:inline"><text
     inkscape:label="use only with explicit permission"
     id="text5310"
     y="2577.8655"
     x="2493.5691"
     style="font-style:normal;font-weight:normal;font-size:1058.33337402px;line-height:1.25;font-family:sans-serif;letter-spacing:0px;word-spacing:0px;fill:#000000;fill-opacity:1;stroke:none;stroke-width:26.45833397"
     xml:space="preserve"><tspan
       style="font-size:282.222229px;stroke-width:26.45833397"
       y="2577.8655"
       x="2493.5691"
       id="tspan5308"
       sodipodi:role="line">use only with explicit permission</tspan></text>
<text
     inkscape:label="private"
     id="text5286"
     y="1811.424"
     x="2882.2764"
     style="font-style:normal;font-weight:normal;font-size:1058.33337402px;line-height:1.25;font-family:sans-serif;letter-spacing:0px;word-spacing:0px;display:inline;fill:#000000;fill-opacity:1;stroke:none;stroke-width:26.45833397"
     xml:space="preserve"><tspan
       style="font-style:normal;font-variant:normal;font-weight:normal;font-stretch:normal;font-size:1128.88891602px;font-family:sans-serif;-inkscape-font-specification:sans-serif;stroke-width:26.45833397"
       y="1811.424"
       x="2882.2764"
       id="tspan5284"
       sodipodi:role="line">private</tspan></text>
<path
     inkscape:label="Corner Red"
     sodipodi:nodetypes="cccc"
     inkscape:connector-curvature="0"
     id="path5320"
     d="M 0,-8.7552735e-6 H 2300 L 0,2300 Z"
     style="fill:#ff0000;fill-opacity:1;stroke:none;stroke-width:26.45833397px;stroke-linecap:butt;stroke-linejoin:miter;stroke-opacity:1" /></g></svg>